<?xml version="1.0" standalone="no"?>
<!DOCTYPE svg PUBLIC "-//W3C//DTD SVG 1.1//EN" "http://www.w3.org/Graphics/SVG/1.1/DTD/svg11.dtd" >
<svg xmlns="http://www.w3.org/2000/svg">
<metadata>Generated by IcoMoon</metadata>
<defs>
<font id="ic" horiz-adv-x="1024">
<font-face units-per-em="1024" ascent="960" descent="-64" />
<missing-glyph horiz-adv-x="1024" />
<glyph unicode="&#x20;" horiz-adv-x="512" d="" />
<glyph unicode="&#xe023;" glyph-name="setting" d="M512 938.667q53 0 90.5-37.5t37.5-90.5v-22q15.667-5.333 37.667-15.333l15.333 15.333q37.667 37.667 90.667 37.667 52.667 0 90.333-37.667t37.667-90.333q0-53-37.667-90.667l-15.333-15.333q10-22 15.333-37.667h22q53 0 90.5-37.5t37.5-90.5-37.5-90.5-90.5-37.5h-22q-5.333-15.667-15.333-37.667l15.333-15.333q37.667-37.667 37.667-90.667 0-52.667-37.667-90.333t-90.333-37.667q-53 0-90.667 37.667l-15.333 15.333q-22-10-37.667-15.333v-22q0-53-37.5-90.5t-90.5-37.5-90.5 37.5-37.5 90.5v22q-15.667 5.333-37.667 15.333l-15.333-15.333q-37.667-37.667-90.333-37.667-53 0-90.5 37.667t-37.5 90.333q0 53.333 37.333 90.667l15.333 15.333q-10 22-15.333 37.667h-22q-53 0-90.5 37.5t-37.5 90.5 37.5 90.5 90.5 37.5h22q5.333 15.667 15.333 37.667l-15.333 15.333q-37.333 37.333-37.333 90.667 0 52.667 37.5 90.333t90.5 37.667q52.667 0 90.333-37.667l15.333-15.333q22 10 37.667 15.333v22q0 53 37.5 90.5t90.5 37.5zM512 853.334q-17.667 0-30.167-12.5t-12.5-30.167v-88.333q-74.667-10.667-136.333-56.333l-62.333 62.333q-12.667 12.667-30 12.667-17.667 0-30.167-12.5t-12.5-30.167q0-18 12.333-30.333l62.333-62.333q-45.667-61.667-56.333-136.333h-88.333q-17.667 0-30.167-12.5t-12.5-30.167 12.5-30.167 30.167-12.5h88.333q10.667-74.667 56.333-136.333l-62.333-62.333q-12.333-12.333-12.333-30.333 0-17.667 12.5-30.167t30.167-12.5q17.333 0 30 12.667l62.333 62.333q61.667-45.667 136.333-56.333v-88.333q0-17.667 12.5-30.167t30.167-12.5 30.167 12.5 12.5 30.167v88.333q74.667 10.667 136.333 56.333l62.333-62.333q12.667-12.667 30.333-12.667t30.167 12.5 12.5 30.167-12.667 30.333l-62.333 62.333q45.667 61.667 56.333 136.333h88.333q17.667 0 30.167 12.5t12.5 30.167-12.5 30.167-30.167 12.5h-88.333q-10.667 74.667-56.333 136.333l62.333 62.333q12.667 12.667 12.667 30.333t-12.5 30.167-30.167 12.5-30.333-12.667l-62.333-62.333q-61.667 45.667-136.333 56.333v88.333q0 17.667-12.5 30.167t-30.167 12.5zM512 597.334q70.667 0 120.667-50t50-120.667-50-120.667-120.667-50-120.667 50-50 120.667 50 120.667 120.667 50zM512 512q-35.333 0-60.333-25t-25-60.333 25-60.333 60.333-25 60.333 25 25 60.333-25 60.333-60.333 25z" />
<glyph unicode="&#xe02f;" glyph-name="qlist" d="M810 640.667v84h-426v-84h426zM640 298.667v86h-256v-86h256zM810 468.667v86h-426v-86h426zM854 852.667c46 0 84-38 84-84v-512c0-46-38-86-84-86h-512c-46 0-86 40-86 86v512c0 46 40 84 86 84h512zM170 682.667v-598h598v-84h-598c-46 0-84 38-84 84v598h84z" />
<glyph unicode="&#xe036;" glyph-name="pause" d="M554 256.667v340h86v-340h-86zM512 84.667c188 0 342 154 342 342s-154 342-342 342-342-154-342-342 154-342 342-342zM512 852.667c236 0 426-190 426-426s-190-426-426-426-426 190-426 426 190 426 426 426zM384 256.667v340h86v-340h-86z" />
<glyph unicode="&#xe039;" glyph-name="play" d="M512 84.667c188 0 342 154 342 342s-154 342-342 342-342-154-342-342 154-342 342-342zM512 852.667c236 0 426-190 426-426s-190-426-426-426-426 190-426 426 190 426 426 426zM426 234.667v384l256-192z" />
<glyph unicode="&#xe109;" glyph-name="trash" d="M426.667 896h170.667q53 0 90.5-37.5t37.5-90.5v-42.667h170.667q17.667 0 30.167-12.5t12.5-30.167-12.5-30.167-30.167-12.5h-42.667v-512q0-53-37.5-90.5t-90.5-37.5h-426.667q-53 0-90.5 37.5t-37.5 90.5v512h-42.667q-17.667 0-30.167 12.5t-12.5 30.167 12.5 30.167 30.167 12.5h170.667v42.667q0 53 37.5 90.5t90.5 37.5zM768 128v512h-512v-512q0-17.667 12.5-30.167t30.167-12.5h426.667q17.667 0 30.167 12.5t12.5 30.167zM597.333 810.667h-170.667q-17.667 0-30.167-12.5t-12.5-30.167v-42.667h256v42.667q0 17.667-12.5 30.167t-30.167 12.5z" />
<glyph unicode="&#xe122;" glyph-name="download" d="M512 896q17.667 0 30.167-12.5t12.5-30.167v-494.333l140.333 140.667q12.333 12.333 30.333 12.333 18.333 0 30.5-12.167t12.167-30.5q0-18-12.333-30.333l-213.333-213.333q-12.333-12.333-30.333-12.333t-30.333 12.333l-213.333 213.333q-12.333 13-12.333 30.333 0 17.667 12.5 30.167t30.167 12.5q18 0 30.333-12.333l140.333-140.667v494.333q0 17.667 12.5 30.167t30.167 12.5zM938.667 298.667q17.667 0 30.167-12.5t12.5-30.167v-170.667q0-53.333-37-90.333-37.667-37.667-90-37.667h-683.667q-52.333 0-90.667 37.333-37.333 38.333-37.333 90.667v170.667q0 17.667 12.5 30.167t30.167 12.5 30.167-12.5 12.5-30.167v-170.667q0-17.667 12.5-30.167t30.167-12.5h683.667q17.333 0 29.5 12.5t12.167 30.167v170.667q0 17.667 12.5 30.167t30.167 12.5z" />
<glyph unicode="&#xe15d;" glyph-name="remove_point" d="M512 84.667c188 0 342 154 342 342s-154 342-342 342-342-154-342-342 154-342 342-342zM512 852.667c236 0 426-190 426-426s-190-426-426-426-426 190-426 426 190 426 426 426zM298 468.667h428v-84h-428v84z" />
<glyph unicode="&#xe3ba;" glyph-name="control_point" d="M512 84.667c188 0 342 154 342 342s-154 342-342 342-342-154-342-342 154-342 342-342zM512 852.667c236 0 426-190 426-426s-190-426-426-426-426 190-426 426 190 426 426 426zM554 640.667v-172h172v-84h-172v-172h-84v172h-172v84h172v172h84z" />
<glyph unicode="&#xe5c3;" glyph-name="apps" d="M682 84.667v172h172v-172h-172zM682 340.667v172h172v-172h-172zM426 596.667v172h172v-172h-172zM682 768.667h172v-172h-172v172zM426 340.667v172h172v-172h-172zM170 340.667v172h172v-172h-172zM170 84.667v172h172v-172h-172zM426 84.667v172h172v-172h-172zM170 596.667v172h172v-172h-172z" />
<glyph unicode="&#xe615;" glyph-name="event_busy" d="M810 128.667v468h-596v-468h596zM810 810.667c46 0 86-40 86-86v-596c0-46-40-86-86-86h-596c-48 0-86 40-86 86v596c0 46 38 86 86 86h42v86h86v-86h340v86h86v-86h42zM398 212.667l-46 46 104 104-104 104 46 46 104-104 104 104 44-46-104-104 104-104-44-46-104 104z" />
<glyph unicode="&#xe838;" glyph-name="star" d="M512 202.667l-264-160 70 300-232 202 306 26 120 282 120-282 306-26-232-202 70-300z" />
<glyph unicode="&#xe877;" glyph-name="done_all" d="M18 366.667l60 60 238-238-60-60zM948 700.667l62-60-512-512-240 238 62 60 178-178zM768 640.667l-270-272-60 60 270 272z" />
<glyph unicode="&#xe87d;" glyph-name="fav_h" d="M512 28.667l-62 56c-220 200-364 330-364 492 0 132 102 234 234 234 74 0 146-36 192-90 46 54 118 90 192 90 132 0 234-102 234-234 0-162-144-294-364-494z" />
<glyph unicode="&#xe87e;" glyph-name="fav" d="M516 146.667c204 184 338 306 338 430 0 86-64 148-150 148-66 0-130-42-152-100h-80c-22 58-86 100-152 100-86 0-150-62-150-148 0-124 134-246 338-430l4-4zM704 810.667c132 0 234-102 234-234 0-162-144-292-364-492l-62-56-62 54c-220 200-364 332-364 494 0 132 102 234 234 234 74 0 146-36 192-90 46 54 118 90 192 90z" />
<glyph unicode="&#xe899;" glyph-name="lock" d="M768 84.667v428h-512v-428h512zM380 682.667v-86h264v86c0 72-60 132-132 132s-132-60-132-132zM768 596.667c46 0 86-38 86-84v-428c0-46-40-84-86-84h-512c-46 0-86 38-86 84v428c0 46 40 84 86 84h42v86c0 118 96 214 214 214s214-96 214-214v-86h42zM512 212.667c-46 0-86 40-86 86s40 86 86 86 86-40 86-86-40-86-86-86z" />
<glyph unicode="&#xe900;" glyph-name="down" d="M891.802 660.019c13.926 13.722 36.301 13.722 50.125 0s13.875-35.891 0-49.613l-404.89-400.896c-13.824-13.722-36.198-13.722-50.125 0l-404.89 400.896c-13.824 13.722-13.824 35.891 0 49.613 13.875 13.722 36.301 13.722 50.125 0l379.853-365.619 379.802 365.619z" />
<glyph unicode="&#xe901;" glyph-name="left" d="M711.219 80.998c13.722-13.926 13.722-36.301 0-50.125s-35.891-13.875-49.613 0l-400.896 404.89c-13.722 13.824-13.722 36.198 0 50.125l400.896 404.89c13.722 13.824 35.891 13.824 49.613 0 13.722-13.875 13.722-36.301 0-50.125l-365.619-379.853 365.619-379.802z" />
<glyph unicode="&#xe902;" glyph-name="right" d="M678.4 460.8l-365.619 379.904c-13.722 13.824-13.722 36.198 0 50.125 13.722 13.824 35.891 13.824 49.613 0l400.896-404.89c13.722-13.875 13.722-36.301 0-50.125l-400.896-404.89c-13.722-13.875-35.891-13.824-49.613 0-13.722 13.773-13.722 36.198 0 50.125l365.619 379.75z" />
<glyph unicode="&#xe903;" glyph-name="up" d="M132.198 261.581c-13.926-13.722-36.301-13.722-50.125 0s-13.875 35.891 0 49.613l404.89 400.896c13.824 13.722 36.198 13.722 50.125 0l404.89-400.896c13.824-13.722 13.824-35.891 0-49.613-13.875-13.722-36.301-13.722-50.074 0l-379.904 365.619-379.802-365.619z" />
<glyph unicode="&#xe904;" glyph-name="good" d="M991.722 551.947c-21.731 36.452-59.347 59.215-97.958 60.41l-239.445 1.196c15.949 48.082 24.025 98.224 24.025 148.964 0 25.22-2.094 51.006-6.714 78.851l-4.452 20.137c-12.727 57.618-61.208 97.992-118.029 97.992-66.821 0-121.184-56.722-121.184-126.536 0-4.053 0.133-8.008 0.499-11.331-3.29-123.744-146.074-251.44-194.62-251.44l-177.973-0.1c-23.226 0-42.134-19.803-42.134-44.028l-0.431-519.297c0-24.622 20.435-42.567 46.022-43.297l154.214 0.298 5.915-1.13 5.183 0.765 586.918-0.232c20.636 1.496 40.54 8.173 57.819 19.672 18.706 12.526 33.792 30.171 40.638 45.688l7.177 12.462c40.44 100.417 89.784 407.98 91.779 420.973l0.797 12.46c2.025 27.615-4.223 54.398-18.045 77.524v0 0 0zM85.677 494.695l95.93 0.133v-456.495l-96.296-0.266 0.366 456.628zM853.126 74.619l-4.554-7.511c-4.085-8.638-10.333-15.916-17.976-21.033-6.977-4.651-15.251-7.409-21.498-7.876l-555.55 0.233v460.383c94.867 19.272 242.735 170.563 246.756 326.504l-0.432 7.642c0 28.377 22.098 51.505 49.278 51.505 23.095 0 42.799-16.383 47.983-39.874l4.020-17.845c3.523-21.532 5.25-43.064 5.25-64.097 0-42.599-6.811-84.699-20.335-125.006l-33.095-98.989 327.566-0.065 7.743-0.833c17.413-0.664 33.229-10.201 42.367-25.519 5.682-9.537 8.274-20.635 7.41-37.979-0.503-2.993-49.979-311.786-84.935-399.643v0 0 0z" />
<glyph unicode="&#xe905;" glyph-name="car" d="M814.176 455.111c39.527 0 73.888 27.166 83.001 65.639l67.166 283.445c13.472 53.86-27.252 106.027-82.75 106.027h-767.668c-31.388 0-56.86-25.472-56.86-56.889s25.472-56.889 56.86-56.889h56.889v-483.556c0-47.14 38.194-85.333 85.278-85.333h597.111c31.417 0 56.86 25.472 56.86 56.889s-25.444 56.889-56.86 56.889h-568.667v113.778h529.639zM284.537 796.444h561.083l-53.916-227.556h-507.166v227.556zM312.981 170.667c-47.111 0-85.305-38.194-85.305-85.333s38.194-85.333 85.305-85.333 85.305 38.194 85.305 85.333-38.194 85.333-85.305 85.333zM767.897 170.667c-47.111 0-85.278-38.194-85.278-85.333s38.167-85.333 85.278-85.333 85.305 38.194 85.305 85.333-38.194 85.333-85.305 85.333z" />
<glyph unicode="&#xe906;" glyph-name="order" d="M411.024 241.839h-96.028c-16.175 0-29.29-13.115-29.29-29.294 0-16.175 13.113-29.29 29.29-29.29h96.028c16.179 0 29.293 13.115 29.293 29.29 0 16.178-13.113 29.294-29.293 29.294zM548.428 388.301h-233.432c-16.175 0-29.29-13.119-29.29-29.295s13.113-29.29 29.29-29.29h233.432c16.177 0 29.292 13.115 29.292 29.29s-13.114 29.295-29.292 29.295zM812.959 779.258h-87.309v-58.587h87.309c32.356 0 58.583-26.231 58.583-58.584v-585.837c0-32.354-26.227-58.585-58.583-58.585h-585.84c-32.353 0-58.581 26.231-58.581 58.585v585.836c0 32.352 26.227 58.584 58.581 58.584h88.445v58.587h-88.446c-64.706 0-117.164-52.458-117.164-117.172v-585.837c0-64.711 52.458-117.164 117.164-117.164h585.841c64.709 0 117.168 52.453 117.168 117.164v585.838c0 64.713-52.458 117.172-117.168 117.172zM725.082 534.755h-410.086c-16.175 0-29.29-13.116-29.29-29.299 0-16.171 13.113-29.289 29.29-29.289h410.086c16.179 0 29.293 13.118 29.293 29.289 0 16.182-13.113 29.299-29.293 29.299zM673.337 873.675h-50.721c0-2.597-0.109-5.167-0.299-7.714-3.817 52.858-47.878 94.563-101.709 94.563-51.181 0-93.503-37.709-100.829-86.85h-51.902c-28.891 0-52.312-23.422-52.312-52.312v-129.713c0-28.892 23.421-52.312 52.312-52.312h305.461c28.892 0 52.313 23.421 52.313 52.312v129.712c-0.001 28.891-23.422 52.313-52.314 52.313zM665.773 724.511c0-18.317-19.497-33.166-43.55-33.166h-203.233c-24.052 0-43.55 14.849-43.55 33.166v66.334c0 18.317 19.498 33.167 43.55 33.167h67.702c-8.929 8.779-14.474 20.992-14.474 34.504 0 26.725 21.665 48.389 48.39 48.389 26.723 0 48.387-21.664 48.387-48.389 0-13.512-5.544-25.725-14.473-34.504h67.701c24.053 0 43.55-14.849 43.55-33.167v-66.334zM756.842 321.72c-10.401 10.656-27.264 10.656-37.665 0l-119.276-122.207-56.494 57.884c-10.402 10.66-27.265 10.66-37.663 0-10.405-10.653-10.405-27.933 0-38.591l75.327-77.182c10.402-10.659 27.263-10.659 37.662 0l138.108 141.505c10.401 10.657 10.401 27.936 0 38.593v0z" />
<glyph unicode="&#xe907;" glyph-name="book" d="M542.464 706.765l22.835-70.195c18.893 16.179 42.752 30.669 73.779 40.704 30.208 9.83 56.883 15.36 80.998 18.534l-22.016 67.738c-24.371-3.533-51.251-9.216-80.896-18.842-29.594-9.626-54.016-23.040-74.701-37.939zM589.926 560.589l22.835-70.195c18.893 16.179 42.752 30.669 73.779 40.704 30.208 9.83 56.883 15.36 80.998 18.534l-22.016 67.738c-24.371-3.533-51.251-9.216-80.896-18.842-29.594-9.574-53.965-22.989-74.701-37.939zM637.44 414.464l22.835-70.195c18.893 16.179 42.752 30.669 73.779 40.704 30.208 9.83 56.883 15.36 80.998 18.534l-22.016 67.738c-24.371-3.533-51.251-9.216-80.896-18.842-29.645-9.574-54.016-23.040-74.701-37.939zM275.866 303.258l22.016-67.738c21.35 11.571 46.182 22.784 76.39 32.563 31.027 10.086 58.829 12.39 83.61 10.394l-22.835 70.195c-25.549-0.102-53.146-3.584-82.688-13.158-29.645-9.626-54.733-20.787-76.493-32.256zM180.89 595.558l22.016-67.738c21.35 11.571 46.182 22.733 76.39 32.563 31.027 10.086 58.829 12.39 83.61 10.394l-22.784 70.246c-25.549-0.154-53.146-3.584-82.739-13.21-29.645-9.626-54.733-20.787-76.493-32.256zM228.352 449.382l22.016-67.738c21.35 11.571 46.182 22.784 76.39 32.563 31.027 10.086 58.829 12.39 83.61 10.394l-22.784 70.246c-25.549-0.102-53.146-3.584-82.688-13.158-29.645-9.626-54.784-20.838-76.544-32.307zM566.477 900.608c-88.218-28.672-134.298-89.702-156.314-131.021-42.086 20.48-115.2 42.752-203.418 14.080-129.178-41.984-203.213-134.502-203.213-134.502l209.664-644.454c6.451-19.814 33.075-24.422 44.954-7.322 25.549 36.813 74.752 84.89 166.758 114.79 87.962 28.57 152.013-2.765 187.136-29.594 13.926-10.65 33.894-3.072 39.014 13.722 12.902 42.342 46.438 104.448 133.632 132.762 92.109 29.952 160.205 19.917 202.547 5.12 19.712-6.861 38.4 12.39 32 32.205l-209.306 644.813c0 0-114.278 31.334-243.456-10.598zM560.691 191.693c-41.933 12.493-97.331 18.33-160.819-2.253-64.051-20.787-108.902-48.589-138.189-71.885l-166.144 511.078c18.33 18.33 60.774 53.35 136.294 77.875 71.117 23.091 129.434 3.328 167.885-19.354l160.973-495.462zM913.664 329.37c-37.427 1.638-90.061-2.253-154.112-23.091-63.488-20.634-104.858-57.958-131.43-92.672l-160.973 495.462c17.715 40.96 53.248 91.238 124.416 114.33 75.469 24.525 130.406 21.146 156.006 17.101l166.093-511.13z" />
<glyph unicode="&#xe90a;" glyph-name="news" d="M511.59 85.874c-31.941 0-63.038 2.917-93.29 7.869l-218.636-132.641v220.826c-113.983 80.082-187.156 202.819-187.156 340.643 0 241.171 223.436 436.698 499.083 436.698 275.649 0 499.084-195.527 499.084-436.698-0.001-241.21-223.437-436.697-499.084-436.697v0zM511.59 896.883c-241.134 0-436.697-167.577-436.697-374.312 0-126.844 73.788-238.716 186.388-306.437l-1.997-144.658 146.846 88.262c33.824-7.256 68.99-11.48 105.423-11.48 241.21 0 436.699 167.577 436.699 374.313 0.036 206.697-195.452 374.313-436.662 374.313v0zM761.132 460.186c-34.436 0-62.385 27.909-62.385 62.385s27.949 62.385 62.385 62.385 62.385-27.949 62.385-62.385-27.949-62.385-62.385-62.385v0zM511.59 460.186c-34.397 0-62.385 27.909-62.385 62.385s27.988 62.385 62.385 62.385c34.437 0 62.386-27.949 62.386-62.385s-27.95-62.385-62.386-62.385v0zM262.049 460.186c-34.398 0-62.384 27.909-62.384 62.385s27.986 62.385 62.384 62.385c34.437 0 62.385-27.949 62.385-62.385s-27.948-62.385-62.385-62.385v0z" />
<glyph unicode="&#xe90d;" glyph-name="major" d="M395.708 960.512h-307.555c-42.458 0-76.889-34.427-76.889-76.889v-307.554c0-42.462 34.431-76.889 76.889-76.889h307.556c42.461 0 76.888 34.427 76.888 76.889v307.554c-0.001 42.462-34.427 76.889-76.889 76.889v0zM395.708 614.514c0-21.25-17.193-38.445-38.443-38.445h-230.666c-21.25 0-38.445 17.195-38.445 38.445v230.667c0 21.249 17.196 38.443 38.445 38.443h230.666c21.25 0 38.443-17.194 38.443-38.443v-230.667zM395.708 422.292h-307.555c-42.459 0-76.889-34.427-76.889-76.89v-307.554c0-42.462 34.431-76.89 76.889-76.89h307.556c42.461 0 76.888 34.428 76.888 76.89v307.554c-0.001 42.462-34.427 76.89-76.889 76.89v0zM395.708 76.295c0-21.253-17.193-38.447-38.443-38.447h-230.666c-21.25 0-38.445 17.197-38.445 38.447v230.663c0 21.251 17.196 38.444 38.445 38.444h230.666c21.25 0 38.443-17.196 38.443-38.444v-230.663zM568.709 230.070h422.885c10.627 0 19.223-8.633 19.223-19.222v-38.443c0-10.624-8.596-19.219-19.223-19.219h-422.885c-10.625 0-19.223 8.595-19.223 19.219v38.443c-0.001 10.588 8.598 19.222 19.223 19.222v0zM568.709 383.849h422.885c10.627 0 19.223-8.637 19.223-19.22v-38.449c0-10.621-8.596-19.22-19.223-19.22h-422.885c-10.625 0-19.223 8.599-19.223 19.22v38.449c-0.001 10.583 8.598 19.22 19.223 19.22v0zM568.709 76.295h422.885c10.627 0 19.223-8.598 19.223-19.223v-38.442c0-10.627-8.596-19.225-19.223-19.225h-422.885c-10.625 0-19.223 8.598-19.223 19.225v38.442c-0.001 10.624 8.598 19.223 19.223 19.223v0zM568.709 768.292h422.885c10.627 0 19.223-8.598 19.223-19.223v-38.445c0-10.624-8.596-19.222-19.223-19.222h-422.885c-10.625 0-19.223 8.596-19.223 19.222v38.445c-0.001 10.625 8.598 19.223 19.223 19.223v0zM568.709 922.068h422.885c10.627 0 19.223-8.598 19.223-19.222v-38.445c0-10.624-8.596-19.222-19.223-19.222h-422.885c-10.625 0-19.223 8.598-19.223 19.222v38.446c-0.001 10.623 8.598 19.22 19.223 19.22v0zM568.709 614.514h422.885c10.627 0 19.223-8.635 19.223-19.223v-38.445c0-10.624-8.596-19.22-19.223-19.22h-422.885c-10.625 0-19.223 8.595-19.223 19.22v38.445c-0.001 10.589 8.598 19.223 19.223 19.223v0z" />
<glyph unicode="&#xe90e;" glyph-name="call" d="M919.421 393.879c0.229 9.316 0.257 18.797 0.065 28.303 2.538 128.564-35.726 236.937-110.662 313.434-35.745 36.475-79.214 64.472-129.026 83.545-7.733 69.445-83.154 142.883-174.761 142.883-91.609 0-167.024-73.437-174.757-142.882-49.812-19.074-93.275-47.072-129.016-83.547-74.958-76.498-113.234-184.656-110.684-312.835-0.224-12.112-0.148-23.483 0.229-34.597-19.423-19.549-34.64-49.078-23.522-90.513 8.265-30.786 31.042-53.859 58.991-63.954 14.204-8.757 30.887-13.859 48.737-13.975 35.635-155.809 164.997-261.587 333.926-261.587 168.621 0 298.015 106.044 333.447 261.941 1.090-0.238 2.225-0.369 3.385-0.369 22.254 0 42.722 7.771 58.869 20.713 21.105 11.974 37.615 32.010 44.378 57.231 12.261 45.676-7.486 76.888-29.6 96.207zM820.434 308.722c0-20.713-1.564-40.739-4.582-59.979-55.032-87.927-146.336-145.542-259.448-157.953-8.43 11.127-25.601 18.794-45.548 18.794-28.289 0-51.243-15.31-51.243-34.154 0-18.885 22.955-34.162 51.243-34.162 25.351 0 46.241 12.339 50.306 28.476 36.484 4.191 71.269 12.911 103.877 26.079 46.581 18.813 87.627 46.213 121.991 81.451 5.504 5.632 10.781 11.467 15.891 17.455-40.958-124.74-150.442-204.927-293.374-204.94-0.254 0.013-0.958 0.013-1.211 0.013-183.406 0-311.501 131.144-311.501 319.217l-0.341 17.893c-0.23 7.671 0.962 29.217 2.238 49.874 99.98 35.371 141.495 137.003 143.31 141.57l15.589 61.397c2.683-4.49 67.062-110.644 188.358-156.661 33.465-12.691 67.751-19.956 100.907-26.976 66.513-14.091 129.342-27.402 172.15-82.966 0.447-0.585 0.942-1.118 1.453-1.623-0.066-2.804-0.066-2.807-0.066-2.807zM423.577 294.765c0-32.743-26.546-59.289-59.294-59.289-32.746 0-59.294 26.546-59.294 59.289 0 32.748 26.546 59.296 59.294 59.296 32.745 0.001 59.294-26.547 59.294-59.296M699.69 294.765c0-32.222-26.121-58.344-58.346-58.344-32.223 0-58.346 26.122-58.346 58.344 0 32.227 26.123 58.346 58.346 58.346 32.225 0.001 58.346-26.119 58.346-58.346" />
<glyph unicode="&#xe910;" glyph-name="mobile" d="M718.977 952.332h-416.446c-62.74 0-113.575-50.87-113.575-113.572v-757.142c0-62.701 50.836-113.572 113.575-113.572h416.446c62.742 0 113.577 50.871 113.577 113.572v757.142c0 62.701-50.836 113.572-113.577 113.572v0zM472.895 914.475h75.719c10.462 0 18.928-8.467 18.928-18.929 0-10.463-8.466-18.929-18.928-18.929h-75.719c-10.462 0-18.929 8.466-18.929 18.929 0 10.461 8.465 18.929 18.929 18.929v0zM510.755 14.297c-26.73 0-48.396 21.661-48.396 48.392 0 26.728 21.667 48.392 48.396 48.392s48.393-21.664 48.393-48.392c0.003-26.732-21.663-48.392-48.393-48.392v0zM756.836 176.261c0-10.463-8.466-18.929-18.928-18.929h-454.307c-10.462 0-18.93 8.466-18.93 18.929v643.571c0 10.462 8.467 18.929 18.93 18.929h454.307c10.462 0 18.928-8.467 18.928-18.929v-643.571z" />
<glyph unicode="&#xe911;" glyph-name="video" d="M853.436 539.385h-476.128l466.634 147.481c36.308 11.454 56.511 50.329 45.019 86.637l-27.272 86.327c-11.476 36.293-50.328 56.488-86.636 45.004l-630.812-199.37c-36.309-11.462-56.496-50.351-45.026-86.629l27.271-86.318c2.152-6.796 5.257-13.022 9.125-18.583-11.758-13.273-18.96-30.666-18.96-49.752v-376.121c0-41.455 33.742-75.205 75.212-75.205h661.573c41.47 0 75.219 33.75 75.219 75.205v376.121c0.001 41.47-33.748 75.204-75.218 75.204zM802.353 848.78c2.189-1.45 4.023-3.483 4.866-6.167l27.301-86.326c1.982-6.256-1.523-12.985-7.794-14.975l-42.534-13.429 18.161 120.897zM639.729 802.165l72.424 22.879-18.93-125.917-72.424-22.902 18.93 125.94zM476.349 750.527l72.439 22.886-18.945-125.925-72.454-22.902 18.96 125.941zM312.967 698.868l72.416 22.909-18.945-125.917-72.409-22.909 18.938 125.917zM161.456 650.995l60.548 19.145-18.931-125.94-7.151-2.256c-6.264-1.981-12.977 1.516-14.96 7.786l-27.287 86.304c-1.989 6.279 1.508 12.978 7.779 14.961zM859.189 88.060c0-3.165-2.573-5.738-5.753-5.738h-661.573c-3.172 0-5.754 2.574-5.754 5.738v376.121c0 3.165 2.582 5.738 5.754 5.738h661.573c3.18 0 5.753-2.573 5.753-5.738v-376.121zM489.838 404.676c-11.314 9.739-28.351 12.637-43.096 7.395-14.79-5.265-24.417-17.666-24.417-31.443v-209.052c0-13.74 9.628-26.134 24.417-31.384 4.896-1.76 10.042-2.603 15.13-2.603 10.279 0 20.395 3.461 27.967 9.939l121.539 104.546c15.47 13.266 15.47 34.799 0 48.095l-121.54 104.505z" />
<glyph unicode="&#xe912;" glyph-name="volume" horiz-adv-x="1110" d="M816.699 430.96c0 87.992-44.562 164.744-110.783 206.065-3.003 1.7-10.089 4.992-15.031 4.992-14.705 0-26.624-12.77-26.624-28.52 0-10.567 5.256-19.995 13.232-24.922 51.199-31.156 85.758-90.044 85.758-157.614 0-68.76-35.759-128.561-88.448-159.273-7.669-5.002-12.754-14.107-12.754-24.428 0-15.755 11.927-28.52 26.629-28.52 6.248-0.061 13.649 3.887 13.649 3.887 68.216 40.744 114.371 118.752 114.371 208.334v0 0zM785.962 782.028c-4.947 3.171-9.881 5.761-15.848 5.761-14.637 0-26.496-12.706-26.496-28.374 0-11.295 6.271-20.378 15.128-25.531 97.267-60.778 162.692-173.619 162.692-302.924 0-129.212-65.341-241.987-162.504-302.787-8.53-4.959-15.872-14.35-15.872-25.963 0-15.676 11.866-28.372 26.496-28.372 5.883 0 10.567 2.415 15.651 5.576 112.878 70.546 188.797 201.502 188.797 351.55-0.002 149.714-75.59 280.413-188.044 351.065v0 0zM153.032 628.295h131.585c17.55 0 44.513 7.721 162.114 99.964 20.964 16.443 41.437 32.963 59.151 47.46 0 0 0.453-370.374 0.453-371.452 0-15.819 11.974-28.642 26.744-28.642 14.772 0 26.746 12.822 26.746 28.642 0 3.069-1.294 421.622-1.294 421.622 0.009 13.252-7.083 25.339-18.234 31.102-11.148 5.754-24.39 4.178-34.090-4.082-0.458-0.399-47.701-40.605-99.878-81.757-90.755-71.594-117.174-83.516-122.536-85.406h-113.685c-0.658 0-1.278-0.095-1.928-0.106h-58.051c-14.632 0-26.496-12.707-26.496-28.376v-453.006c0-15.67 11.861-28.37 26.496-28.37l194.705-0.013c5.277-2.052 30.214-14.409 110.736-84.732 46.849-40.904 88.888-80.835 89.303-81.227 6.023-5.727 13.67-8.717 21.424-8.717 4.462 0 8.968 1.001 13.209 3.035 11.577 5.577 19.023 17.902 19.023 31.499 0 0 0.056 158.683 0.056 159.088s-0.040 0.796-0.056 1.2v0.859h-0.041c-0.99 14.741-12.443 26.383-26.464 26.383-14.669 0-26.561-12.732-26.561-28.442 0-1.657 0.413-104.093 0.413-104.093-14.283 12.919-30.2 27.109-46.499 41.238-107.504 93.249-134.099 101.051-152.129 101.051-0.356 0-0.683-0.101-1.040-0.113-0.349 0.013-0.683 0.113-1.037 0.113h-146.028c-18.567 0-22.863 5.617-22.863 25.584v347.665c0.002 13.528 1.497 22.029 16.752 22.029v0 0z" />
<glyph unicode="&#xe913;" glyph-name="light" d="M634 380.667c58 40 92 104 92 174 0 118-96 214-214 214s-214-96-214-214c0-70 34-134 92-174l36-26v-98h172v98zM512 852.667c164 0 298-134 298-298 0-102-50-190-128-244v-98c0-24-18-42-42-42h-256c-24 0-42 18-42 42v98c-78 54-128 142-128 244 0 164 134 298 298 298zM384 42.667v42h256v-42c0-24-18-42-42-42h-172c-24 0-42 18-42 42z" />
</font>
</defs>
</svg>
