<?xml version="1.0" encoding="utf-8"?>
<!-- Generator: Adobe Illustrator 16.0.0, SVG Export Plug-In . SVG Version: 6.00 Build 0)  -->
<!DOCTYPE svg PUBLIC "-//W3C//DTD SVG 1.1//EN" "http://www.w3.org/Graphics/SVG/1.1/DTD/svg11.dtd">
<svg version="1.1" id="图层_1" xmlns="http://www.w3.org/2000/svg" xmlns:xlink="http://www.w3.org/1999/xlink" x="0px" y="0px"
	 width="1000px" height="1000px" viewBox="0 0 1000 1000" enable-background="new 0 0 1000 1000" xml:space="preserve">
<g>
	<path fill-rule="evenodd" clip-rule="evenodd" d="M984.13,705.868c0-24.332-18.218-44.076-40.671-44.076
		c-22.455,0-40.671,19.744-40.671,44.076v193.211H95.729V705.868c0-24.332-18.084-44.076-40.375-44.076
		c-22.288,0-40.373,19.744-40.373,44.076v235.071c0,0.174,0.01,0.344,0.011,0.517c-0.002,0.198-0.011,0.393-0.011,0.591
		c0,23.737,15.504,42.969,34.613,42.969h899.924c19.11,0,34.611-19.231,34.611-42.969c0-0.2-0.01-0.395-0.013-0.593
		c0.003-0.171,0.013-0.341,0.013-0.515V705.868L984.13,705.868z M467.477,812.602c8.29,8.467,19.291,12.466,30.14,12.001
		c0.592,0.024,1.186,0.041,1.784,0.041c0.383,0,0.759-0.017,1.14-0.025c10.9,0.289,21.895-3.625,30.208-11.766l275.623-270.055
		c16.069-15.726,16.069-41.19,0-56.887c-16.057-15.724-42.096-15.724-58.164,0L540.029,689.884V53.074
		c0-20.48-18.189-37.074-40.628-37.074c-22.44,0-40.629,16.593-40.629,37.074v634.421l-204.47-208.681
		c-15.723-16.069-41.187-16.069-56.883,0c-15.723,16.056-15.723,42.095,0,58.164L467.477,812.602L467.477,812.602z"/>
</g>
</svg>
