<?xml version="1.0" encoding="utf-8"?>
<!-- Generator: Adobe Illustrator 16.0.0, SVG Export Plug-In . SVG Version: 6.00 Build 0)  -->
<!DOCTYPE svg PUBLIC "-//W3C//DTD SVG 1.1//EN" "http://www.w3.org/Graphics/SVG/1.1/DTD/svg11.dtd">
<svg version="1.1" id="图层_1" xmlns="http://www.w3.org/2000/svg" xmlns:xlink="http://www.w3.org/1999/xlink" x="0px" y="0px"
	 width="1000px" height="1000px" viewBox="0 0 1000 1000" enable-background="new 0 0 1000 1000" xml:space="preserve">
<g>
	<path fill-rule="evenodd" clip-rule="evenodd" d="M968.479,410.989c-21.222-35.598-57.956-57.827-95.662-58.994l-233.833-1.168
		c15.575-46.955,23.462-95.922,23.462-145.473c0-24.629-2.045-49.811-6.557-77.003l-4.348-19.665
		c-12.429-56.268-59.773-95.695-115.263-95.695c-65.255,0-118.344,55.393-118.344,123.57c0,3.958,0.13,7.82,0.487,11.065
		c-3.213,120.844-142.65,245.547-190.059,245.547h-0.065l-173.737,0.098c-22.682,0-41.146,19.339-41.146,42.996l-0.421,507.126
		c0,24.045,19.956,41.569,44.943,42.282l150.6-0.291l5.776,1.104l5.062-0.747l573.162,0.227c20.152-1.461,39.59-7.981,56.464-19.211
		c18.268-12.232,33-29.464,39.686-44.617l7.009-12.17c39.492-98.063,87.68-398.418,89.628-411.106l0.778-12.168
		C988.079,459.728,981.977,433.573,968.479,410.989L968.479,410.989L968.479,410.989L968.479,410.989z M83.669,466.899l93.682-0.13
		v445.796l-94.039,0.26L83.669,466.899L83.669,466.899L83.669,466.899L83.669,466.899z M833.131,877.13l-4.447,7.335
		c-3.989,8.436-10.091,15.543-17.555,20.54c-6.813,4.542-14.894,7.235-20.994,7.691l-542.529-0.228V462.875
		c92.644-18.82,237.046-166.565,240.973-318.852l-0.422-7.463c0-27.712,21.58-50.298,48.123-50.298
		c22.554,0,41.796,15.999,46.858,38.939l3.926,17.427c3.44,21.027,5.127,42.055,5.127,62.595c0,41.601-6.651,82.714-19.858,122.076
		l-32.319,96.669l319.889,0.063l7.562,0.813c17.005,0.648,32.45,9.962,41.374,24.921c5.549,9.313,8.08,20.151,7.236,37.089
		C915.584,489.777,867.267,791.333,833.131,877.13L833.131,877.13L833.131,877.13L833.131,877.13z"/>
</g>
</svg>
