<?xml version="1.0" encoding="utf-8"?>
<!-- Generator: Adobe Illustrator 16.0.0, SVG Export Plug-In . SVG Version: 6.00 Build 0)  -->
<!DOCTYPE svg PUBLIC "-//W3C//DTD SVG 1.1//EN" "http://www.w3.org/Graphics/SVG/1.1/DTD/svg11.dtd">
<svg version="1.1" id="图层_1" xmlns="http://www.w3.org/2000/svg" xmlns:xlink="http://www.w3.org/1999/xlink" x="0px" y="0px"
	 width="200px" height="200px" viewBox="0 0 200 200" enable-background="new 0 0 200 200" xml:space="preserve">
<path stroke="#000000" stroke-width="4" stroke-miterlimit="10" d="M162.678,195.698c-10.626,0-19.272-8.714-19.272-19.423
	c0-10.708,8.646-19.421,19.272-19.421c10.625,0,19.27,8.713,19.27,19.421C181.947,186.984,173.303,195.698,162.678,195.698z
	 M162.678,166.03c-5.608,0-10.166,4.596-10.166,10.245c0,5.65,4.558,10.248,10.166,10.248c5.605,0,10.164-4.598,10.164-10.248
	C172.842,170.627,168.284,166.03,162.678,166.03z M85.341,195.698c-10.625,0-19.271-8.714-19.271-19.423
	c0-10.708,8.646-19.421,19.271-19.421c10.624,0,19.271,8.713,19.271,19.421C104.611,186.984,95.965,195.698,85.341,195.698z
	 M85.341,166.03c-5.607,0-10.165,4.596-10.165,10.245c0,5.65,4.557,10.248,10.165,10.248c5.607,0,10.165-4.598,10.165-10.248
	C95.505,170.627,90.948,166.03,85.341,166.03z M84.965,149.526c-2.191,0-7.455-0.719-13.376-6.68
	c-6.322-6.356-7.836-12.747-8.158-14.599L39.142,32.151c-0.066-0.272-0.116-0.559-0.146-0.84c0-0.023-0.247-2.417-0.937-5.28
	c-0.076,0.099-0.812-0.251-1.463-0.445H7.662c-2.513,0-4.553-2.309-4.553-5.153s2.04-5.153,4.553-5.153h29.436
	c0.264,0,0.531,0.026,0.79,0.078c0.757,0.151,7.434,1.66,8.952,7.96c0.694,2.881,1.033,5.371,1.15,6.377l19.89,78.685l102.996-0.106
	l16.186-58.532c0.053-0.177,0.104-0.353,0.171-0.523c0-0.019,0.393-1.396-0.347-2.895c-0.229-0.462-1.633-0.772-2.559-0.691
	L67.538,45.65c-2.514,0-4.554-2.308-4.554-5.153c0-2.845,2.04-5.153,4.554-5.153h116.229c1.597-0.108,8.024-0.182,11.057,5.935
	c2.604,5.26,1.365,10.184,0.905,11.615l-16.537,59.84c-0.066,0.246-0.15,0.487-0.246,0.722c-1.101,2.606-3.741,5.144-7.341,5.137
	l-101.107,0.14l1.751,6.93c0.06,0.233,0.101,0.469,0.13,0.708c0.017,0.073,0.723,4.213,5.255,8.772
	c4.19,4.216,7.225,4.074,7.343,4.084l80.567-0.024c2.515,0,4.555,2.309,4.555,5.152c0,2.846-2.04,5.153-4.555,5.153H85.566
	C85.403,149.517,85.203,149.526,84.965,149.526z"/>
</svg>
