<?xml version="1.0" encoding="utf-8"?>
<!-- Generator: Adobe Illustrator 16.0.0, SVG Export Plug-In . SVG Version: 6.00 Build 0)  -->
<!DOCTYPE svg PUBLIC "-//W3C//DTD SVG 1.1//EN" "http://www.w3.org/Graphics/SVG/1.1/DTD/svg11.dtd">
<svg version="1.1" id="图层_1" xmlns="http://www.w3.org/2000/svg" xmlns:xlink="http://www.w3.org/1999/xlink" x="0px" y="0px"
	 width="1000px" height="1000px" viewBox="0 0 1000 1000" enable-background="new 0 0 1000 1000" xml:space="preserve">
<path fill-rule="evenodd" clip-rule="evenodd" stroke="#000000" stroke-width="10" stroke-miterlimit="10" d="M897.872,565.353
	c0.224-9.098,0.251-18.356,0.063-27.64c2.479-125.551-34.889-231.384-108.068-306.088c-34.907-35.62-77.357-62.961-126.002-81.587
	C656.313,82.221,582.66,10.504,493.2,10.504c-89.462,0-163.109,71.716-170.661,139.533c-48.645,18.627-91.089,45.969-125.992,81.589
	c-73.201,74.705-110.58,180.328-108.09,305.503c-0.219,11.828-0.145,22.933,0.224,33.786
	c-18.968,19.091-33.828,47.928-22.971,88.392c8.071,30.064,30.314,52.597,57.608,62.455c13.871,8.552,30.163,13.534,47.595,13.647
	c34.8,152.157,161.13,255.456,326.1,255.456c164.669,0,291.03-103.559,325.632-255.802c1.064,0.232,2.173,0.36,3.306,0.36
	c21.732,0,41.721-7.589,57.489-20.228c20.61-11.693,36.733-31.26,43.338-55.89C938.752,614.7,919.467,584.219,897.872,565.353z
	 M801.205,648.514c0,20.228-1.527,39.784-4.475,58.573c-53.742,85.866-142.906,142.131-253.367,154.251
	c-8.232-10.866-25.001-18.354-44.48-18.354c-27.626,0-50.042,14.951-50.042,33.354c0,18.442,22.417,33.361,50.042,33.361
	c24.757,0,45.157-12.05,49.127-27.809c35.629-4.093,69.599-12.608,101.442-25.468c45.489-18.372,85.573-45.13,119.132-79.542
	c5.375-5.5,10.528-11.198,15.519-17.046C744.105,881.65,637.187,959.958,497.605,959.971c-0.248-0.013-0.936-0.013-1.183-0.013
	c-179.107,0-304.2-128.07-304.2-311.735l-0.333-17.474c-0.225-7.491,0.939-28.532,2.186-48.705
	c97.637-34.542,138.179-133.792,139.951-138.252l15.224-59.958c2.62,4.385,65.49,108.051,183.943,152.989
	c32.681,12.394,66.163,19.488,98.542,26.344c64.954,13.761,126.311,26.76,168.115,81.021c0.437,0.571,0.92,1.092,1.419,1.585
	C801.205,648.511,801.205,648.514,801.205,648.514z"/>
<path fill-rule="evenodd" clip-rule="evenodd" stroke="#000000" stroke-width="10" stroke-miterlimit="10" d="M497.605,959.971"/>
<path fill-rule="evenodd" clip-rule="evenodd" stroke="#000000" stroke-width="10" stroke-miterlimit="10" d="M413.649,662.144
	c0,31.976-25.924,57.899-57.904,57.899c-31.979,0-57.904-25.924-57.904-57.899c0-31.98,25.924-57.906,57.904-57.906
	C387.723,604.237,413.649,630.163,413.649,662.144"/>
<path fill-rule="evenodd" clip-rule="evenodd" stroke="#000000" stroke-width="10" stroke-miterlimit="10" d="M683.291,662.144
	c0,31.467-25.509,56.977-56.979,56.977c-31.468,0-56.979-25.51-56.979-56.977c0-31.472,25.511-56.979,56.979-56.979
	C657.782,605.164,683.291,630.672,683.291,662.144"/>
</svg>
