<?xml version="1.0" encoding="utf-8"?>
<!-- Generator: Adobe Illustrator 16.0.0, SVG Export Plug-In . SVG Version: 6.00 Build 0)  -->
<!DOCTYPE svg PUBLIC "-//W3C//DTD SVG 1.1//EN" "http://www.w3.org/Graphics/SVG/1.1/DTD/svg11.dtd">
<svg version="1.1" id="隔离模式" xmlns="http://www.w3.org/2000/svg" xmlns:xlink="http://www.w3.org/1999/xlink" x="0px"
	 y="0px" width="1000px" height="1000px" viewBox="0 0 1000 1000" enable-background="new 0 0 1000 1000" xml:space="preserve">
<g>
	<path fill-rule="evenodd" clip-rule="evenodd" fill="none" stroke="#000000" stroke-width="36" stroke-miterlimit="10" d="
		M500.623,241.629l-0.39,649.533c-0.948,1.303-4.334-2.06-6.499-3.364c-155.583-97.611-349.562-82.061-431.094-69.695
		c-20.479,2.996-38.792-13.302-38.792-34.478V196.293c0-15.739,10.237-29.604,25.007-33.721
		c53.374-15.178,103.59-20.983,149.873-20.609h2.758v0.186C352.336,144.214,461.04,212.592,500.623,241.629z"/>
	<path fill-rule="evenodd" clip-rule="evenodd" fill="none" stroke="#000000" stroke-width="36" stroke-miterlimit="10" d="
		M505.94,888.166c174.185-80.017,350.428-82.273,432.154-69.72c20.537,2.998,38.898-13.306,38.898-34.674v-587.54
		c0-15.744-10.271-29.614-25.079-33.544c-227.624-64.661-397.999,38.976-451.506,77.778"/>
</g>
</svg>
