<?xml version="1.0" encoding="utf-8"?>
<!-- Generator: Adobe Illustrator 16.0.0, SVG Export Plug-In . SVG Version: 6.00 Build 0)  -->
<!DOCTYPE svg PUBLIC "-//W3C//DTD SVG 1.1//EN" "http://www.w3.org/Graphics/SVG/1.1/DTD/svg11.dtd">
<svg version="1.1" id="图层_1" xmlns="http://www.w3.org/2000/svg" xmlns:xlink="http://www.w3.org/1999/xlink" x="0px" y="0px"
	 width="1000px" height="1000px" viewBox="0 0 1000 1000" enable-background="new 0 0 1000 1000" xml:space="preserve">
<path fill-rule="evenodd" clip-rule="evenodd" fill="none" stroke="#000000" stroke-width="30" stroke-miterlimit="10" d="
	M774.091,975.651H225.135c-55.197,0-99.777-44.672-99.777-99.774V211.763c0-55.197,44.672-99.777,99.777-99.777h15.378v-57.67
	c0-15.837,12.907-28.741,28.745-28.741c15.835,0,28.924,12.904,28.924,28.741v57.578h100.693V54.316
	c0-15.837,12.906-28.741,28.743-28.741c15.835,0,28.745,12.904,28.745,28.741v57.578h100.875V54.316
	c0-15.837,12.904-28.741,28.74-28.741c15.932,0,28.835,12.904,28.835,28.741v57.578h100.695V54.316
	c0-15.837,12.998-28.741,28.743-28.741c15.926,0,28.833,12.904,28.833,28.741v57.578H774c55.197,0,99.779,44.671,99.779,99.777
	v664.206h0.089C873.868,930.979,829.288,975.651,774.091,975.651z"/>
<path fill-rule="evenodd" clip-rule="evenodd" d="M626.792,508.792c-10.909-10.905-28.592-10.905-39.502,0l-86.926,86.922
	l-86.927-86.922c-10.908-10.905-28.587-10.905-39.499,0c-10.907,10.908-10.907,28.592,0,39.497l86.925,86.927l-86.925,86.931
	c-10.907,10.909-10.907,28.591,0,39.502c5.233,5.243,12.339,8.186,19.749,8.178c7.407,0.008,14.516-2.935,19.749-8.178
	l86.926-86.931l86.928,86.931c5.231,5.243,12.339,8.186,19.749,8.178c7.409,0.01,14.517-2.935,19.748-8.178
	c10.907-10.911,10.907-28.593,0-39.502l-86.927-86.931l86.932-86.927C637.697,537.382,637.697,519.7,626.792,508.792z"/>
<rect x="182.936" y="356.577" fill-rule="evenodd" clip-rule="evenodd" width="633.261" height="28.743"/>
</svg>
