<?xml version="1.0" encoding="utf-8"?>
<!-- Generator: Adobe Illustrator 16.0.0, SVG Export Plug-In . SVG Version: 6.00 Build 0)  -->
<!DOCTYPE svg PUBLIC "-//W3C//DTD SVG 1.1//EN" "http://www.w3.org/Graphics/SVG/1.1/DTD/svg11.dtd">
<svg version="1.1" id="图层_1" xmlns="http://www.w3.org/2000/svg" xmlns:xlink="http://www.w3.org/1999/xlink" x="0px" y="0px"
	 width="1000px" height="1000px" viewBox="0 0 1000 1000" enable-background="new 0 0 1000 1000" xml:space="preserve">
<g>
	<path d="M401.391,713.829h-93.777c-15.796,0-28.604,12.808-28.604,28.607c0,15.796,12.806,28.604,28.604,28.604h93.777
		c15.8,0,28.606-12.808,28.606-28.604C429.997,726.637,417.191,713.829,401.391,713.829z"/>
	<path d="M535.574,570.8H307.613c-15.796,0-28.604,12.812-28.604,28.608s12.806,28.604,28.604,28.604h227.961
		c15.798,0,28.605-12.808,28.605-28.604S551.372,570.8,535.574,570.8z"/>
	<path d="M793.905,189.006h-85.263v57.214h85.263c31.598,0,57.21,25.616,57.21,57.211v572.106c0,31.596-25.612,57.212-57.21,57.212
		H221.796c-31.595,0-57.208-25.616-57.208-57.212V303.432c0-31.594,25.612-57.211,57.208-57.211h86.372v-57.214h-86.373
		c-63.189,0-114.418,51.229-114.418,114.426v572.106c0,63.194,51.229,114.418,114.418,114.418h572.11
		c63.192,0,114.422-51.224,114.422-114.418V303.432C908.327,240.236,857.098,189.006,793.905,189.006z"/>
	<path d="M708.088,427.778H307.613c-15.796,0-28.604,12.809-28.604,28.612c0,15.792,12.806,28.603,28.604,28.603h400.475
		c15.8,0,28.606-12.811,28.606-28.603C736.694,440.587,723.888,427.778,708.088,427.778z"/>
	<path d="M657.556,96.802h-49.532c0,2.536-0.106,5.046-0.292,7.533c-3.728-51.619-46.756-92.347-99.325-92.347
		c-49.981,0-91.312,36.825-98.466,84.814h-50.686c-28.214,0-51.086,22.873-51.086,51.086v126.673
		c0,28.215,22.872,51.086,51.086,51.086h298.302c28.215,0,51.087-22.872,51.087-51.086V147.889
		C708.643,119.675,685.771,96.802,657.556,96.802z M650.169,242.47c0,17.888-19.04,32.389-42.529,32.389H409.17
		c-23.488,0-42.529-14.501-42.529-32.389v-64.779c0-17.888,19.041-32.39,42.529-32.39h66.115c-8.72-8.573-14.135-20.5-14.135-33.695
		c0-26.099,21.157-47.255,47.256-47.255c26.097,0,47.253,21.156,47.253,47.255c0,13.195-5.414,25.122-14.134,33.695h66.114
		c23.489,0,42.529,14.501,42.529,32.39V242.47z"/>
	<g>
		<path fill-rule="evenodd" clip-rule="evenodd" d="M739.104,635.82c-10.157-10.406-26.625-10.406-36.782,0L585.842,755.163
			l-55.17-56.527c-10.158-10.41-26.626-10.41-36.78,0c-10.161,10.403-10.161,27.278,0,37.687l73.562,75.373
			c10.158,10.409,26.624,10.409,36.779,0l134.871-138.188C749.261,663.101,749.261,646.227,739.104,635.82L739.104,635.82z"/>
	</g>
</g>
</svg>
