<?xml version="1.0" encoding="utf-8"?>
<!-- Generator: Adobe Illustrator 16.0.0, SVG Export Plug-In . SVG Version: 6.00 Build 0)  -->
<!DOCTYPE svg PUBLIC "-//W3C//DTD SVG 1.1//EN" "http://www.w3.org/Graphics/SVG/1.1/DTD/svg11.dtd">
<svg version="1.1" id="图层_1" xmlns="http://www.w3.org/2000/svg" xmlns:xlink="http://www.w3.org/1999/xlink" x="0px" y="0px"
	 width="1000px" height="1000px" viewBox="0 0 1000 1000" enable-background="new 0 0 1000 1000" xml:space="preserve">
<g>
	<path fill-rule="evenodd" clip-rule="evenodd" stroke="#000000" stroke-width="10" stroke-miterlimit="10" d="M499.6,866.139
		c-31.192,0-61.561-2.849-91.104-7.685L194.984,987.986v-215.65C83.672,694.131,12.214,574.271,12.214,439.677
		c0-235.519,218.199-426.463,487.386-426.463c269.188,0,487.387,190.944,487.387,426.463
		C986.986,675.234,768.787,866.139,499.6,866.139L499.6,866.139z M499.6,74.138c-235.482,0-426.462,163.649-426.462,365.539
		c0,123.871,72.059,233.121,182.02,299.255l-1.95,141.268l143.404-86.193c33.031,7.086,67.373,11.211,102.952,11.211
		c235.557,0,426.464-163.649,426.464-365.54C926.063,237.825,735.157,74.138,499.6,74.138L499.6,74.138z M743.293,500.6
		c-33.629,0-60.923-27.255-60.923-60.923c0-33.667,27.294-60.923,60.923-60.923s60.923,27.294,60.923,60.923
		S776.922,500.6,743.293,500.6L743.293,500.6z M499.6,500.6c-33.591,0-60.923-27.255-60.923-60.923
		c0-33.667,27.332-60.923,60.923-60.923c33.63,0,60.924,27.294,60.924,60.923S533.229,500.6,499.6,500.6L499.6,500.6z
		 M255.907,500.6c-33.592,0-60.922-27.255-60.922-60.923c0-33.667,27.33-60.923,60.922-60.923c33.63,0,60.923,27.294,60.923,60.923
		S289.537,500.6,255.907,500.6L255.907,500.6z"/>
</g>
</svg>
