<?xml version="1.0" encoding="utf-8"?>
<!-- Generator: Adobe Illustrator 16.0.0, SVG Export Plug-In . SVG Version: 6.00 Build 0)  -->
<!DOCTYPE svg PUBLIC "-//W3C//DTD SVG 1.1//EN" "http://www.w3.org/Graphics/SVG/1.1/DTD/svg11.dtd">
<svg version="1.1" id="图层_1" xmlns="http://www.w3.org/2000/svg" xmlns:xlink="http://www.w3.org/1999/xlink" x="0px" y="0px"
	 width="1000px" height="1000px" viewBox="0 0 1000 1000" enable-background="new 0 0 1000 1000" xml:space="preserve">
<g>
	<path fill-rule="evenodd" clip-rule="evenodd" d="M386.434,12H86.087C44.624,12,11,45.62,11,87.087v300.346
		c0,41.467,33.624,75.087,75.087,75.087h300.348c41.466,0,75.086-33.62,75.086-75.087V87.087C461.52,45.62,427.901,12,386.434,12
		L386.434,12z M386.434,349.889c0,20.752-16.79,37.544-37.542,37.544h-225.26c-20.752,0-37.544-16.792-37.544-37.544V124.628
		c0-20.751,16.793-37.542,37.544-37.542h225.26c20.752,0,37.542,16.791,37.542,37.542V349.889L386.434,349.889z"/>
	<path fill-rule="evenodd" clip-rule="evenodd" d="M386.434,537.605H86.087c-41.464,0-75.087,33.62-75.087,75.088v300.346
		c0,41.467,33.624,75.088,75.087,75.088h300.348c41.466,0,75.086-33.621,75.086-75.088V612.693
		C461.52,571.226,427.901,537.605,386.434,537.605L386.434,537.605z M386.434,875.493c0,20.755-16.79,37.546-37.542,37.546h-225.26
		c-20.752,0-37.544-16.794-37.544-37.546V650.236c0-20.753,16.793-37.543,37.544-37.543h225.26
		c20.752,0,37.542,16.793,37.542,37.543V875.493L386.434,875.493z"/>
	<path fill-rule="evenodd" clip-rule="evenodd" d="M555.38,725.322h412.974c10.378,0,18.772,8.431,18.772,18.771v37.542
		c0,10.375-8.395,18.769-18.772,18.769H555.38c-10.376,0-18.772-8.394-18.772-18.769v-37.542
		C536.607,733.753,545.004,725.322,555.38,725.322L555.38,725.322z"/>
	<path fill-rule="evenodd" clip-rule="evenodd" d="M555.38,575.147h412.974c10.378,0,18.772,8.435,18.772,18.77v37.548
		c0,10.372-8.395,18.77-18.772,18.77H555.38c-10.376,0-18.772-8.397-18.772-18.77v-37.548
		C536.607,583.582,545.004,575.147,555.38,575.147L555.38,575.147z"/>
	<path fill-rule="evenodd" clip-rule="evenodd" d="M555.38,875.493h412.974c10.378,0,18.772,8.396,18.772,18.772v37.541
		c0,10.378-8.395,18.774-18.772,18.774H555.38c-10.376,0-18.772-8.396-18.772-18.774v-37.541
		C536.607,883.89,545.004,875.493,555.38,875.493L555.38,875.493z"/>
	<path fill-rule="evenodd" clip-rule="evenodd" d="M555.38,199.715h412.974c10.378,0,18.772,8.396,18.772,18.772v37.544
		c0,10.375-8.395,18.771-18.772,18.771H555.38c-10.376,0-18.772-8.395-18.772-18.771v-37.544
		C536.607,208.111,545.004,199.715,555.38,199.715L555.38,199.715z"/>
	<path fill-rule="evenodd" clip-rule="evenodd" d="M555.38,49.543h412.974c10.378,0,18.772,8.396,18.772,18.771v37.544
		c0,10.375-8.395,18.771-18.772,18.771H555.38c-10.376,0-18.772-8.396-18.772-18.771V68.313
		C536.607,57.939,545.004,49.543,555.38,49.543L555.38,49.543z"/>
	<path fill-rule="evenodd" clip-rule="evenodd" d="M555.38,349.889h412.974c10.378,0,18.772,8.433,18.772,18.772v37.544
		c0,10.375-8.395,18.77-18.772,18.77H555.38c-10.376,0-18.772-8.394-18.772-18.77v-37.544
		C536.607,358.32,545.004,349.889,555.38,349.889L555.38,349.889z"/>
</g>
</svg>
