<?xml version="1.0" encoding="utf-8"?>
<!-- Generator: Adobe Illustrator 16.0.0, SVG Export Plug-In . SVG Version: 6.00 Build 0)  -->
<!DOCTYPE svg PUBLIC "-//W3C//DTD SVG 1.1//EN" "http://www.w3.org/Graphics/SVG/1.1/DTD/svg11.dtd">
<svg version="1.1" id="图层_1" xmlns="http://www.w3.org/2000/svg" xmlns:xlink="http://www.w3.org/1999/xlink" x="0px" y="0px"
	 width="1000px" height="1000px" viewBox="0 0 1000 1000" enable-background="new 0 0 1000 1000" xml:space="preserve">
<g>
	<path fill-rule="evenodd" clip-rule="evenodd" d="M927.7,408.461l-78.322-17.371c-6.111-19.522-14.105-38.237-23.29-56.225
		l42.391-70.638c15.833-25.288,23.827-62.488,0-86.353l-43.195-43.159c-23.829-23.829-64.066-19.563-88.354-2.69l-68.715,43.771
		c-17.832-9.262-36.474-17.179-55.841-23.441l-17.602-79.285c-5.266-29.054-30.67-60.567-64.373-60.567h-61.03
		c-33.706,0-54.38,31.974-61.028,61.028l-19.599,78.322c-20.675,6.61-40.545,15.027-59.453,24.98l-70.445-44.848
		c-24.289-16.833-64.524-21.138-88.354,2.69l-43.159,43.158c-23.828,23.869-15.833,61.029,0,86.355l44.582,74.326
		c-8.378,16.833-15.794,34.28-21.521,52.498L72.111,408.46c-29.092,5.23-60.604,30.67-60.604,64.375v61.028
		c0,33.706,31.975,54.381,61.028,61.068l79.32,19.831c5.496,16.834,12.336,32.974,20.102,48.614l-44.655,74.402
		c-15.833,25.29-23.828,62.489,0,86.318l43.196,43.158c23.827,23.867,64.064,19.563,88.353,2.729l70.598-44.966
		c19.024,10.032,39.006,18.562,59.802,25.135l19.522,78.133c6.685,29.093,27.325,61.029,61.068,61.029h61.068
		c33.706,0,59.146-31.475,64.372-60.568l17.603-79.514c19.176-6.188,37.547-14.026,55.187-23.135l68.87,43.888
		c24.288,16.834,64.522,21.138,88.353-2.727l43.194-43.16c23.829-23.867,15.833-61.067,0-86.317l-42.429-70.712
		c8.531-16.758,15.913-34.203,21.868-52.305l79.321-19.795c29.092-6.686,61.029-27.325,61.029-61.067v-61.03
		c0-33.742-31.476-59.182-60.568-64.41l0,0L927.7,408.461 M927.275,529.598c-2.612,1.844-7.494,4.419-13.682,5.882l-113.181,28.246
		l-10.491,32.09c-4.728,14.451-10.876,29.131-18.215,43.62l-15.332,30.129l59.802,99.69c3.804,6.109,5.611,11.569,6.147,14.796
		l-40.16,40.084c-3.882-1.229-8.3-2.807-10.415-4.267l-100.496-64.104l-31.246,16.18c-15.065,7.801-30.476,14.296-45.888,19.255
		l-33.282,10.763l-25.136,113.642c-1.15,6.072-4.418,10.991-6.648,12.723h-54.957c-1.844-2.614-4.418-7.496-5.84-13.643
		L440.159,802.31l-32.513-10.299c-16.758-5.266-33.476-12.336-49.73-20.904l-31.396-16.567l-100.497,63.99
		c-4.112,2.768-8.493,4.342-12.491,4.342l-40.044-38.97c0.536-3.149,2.189-8.378,5.534-13.717l62.449-104.034l-14.835-29.899
		c-6.92-14.104-12.414-27.326-16.681-40.428l-10.531-32.09L87.358,535.716c-7.032-1.614-12.145-4.228-14.796-6.108v-56.764
		c0.039,0,0.077,0.039,0.153,0.039c1.038,0,6.034-3.575,10.224-4.343l115.141-25.517l10.569-33.666
		c4.304-13.719,10.184-27.978,17.948-43.659l14.836-29.9l-61.796-102.956c-3.844-6.147-5.613-11.604-6.147-14.796l40.121-40.122
		c3.881,1.228,8.262,2.806,10.377,4.267l102.343,65.255l31.361-16.566c16.104-8.493,32.744-15.489,49.5-20.828l32.435-10.336
		L467.453,88.34c1.615-7.032,4.229-12.145,6.111-14.797h56.764c-0.425,0.615,3.498,5.958,4.302,10.377l25.633,115.796l33.245,10.762
		c15.604,5.034,31.245,11.604,46.462,19.522l31.246,16.216l98.383-62.683c4.111-2.806,8.53-4.381,12.49-4.381l40.044,38.93
		c-0.536,3.19-2.229,8.417-5.534,13.759l-60.414,100.615l15.412,30.167c8.301,16.257,14.679,31.514,19.368,46.655l10.531,33.706
		l112.835,25.057c6.842,1.267,12.145,5.187,13.257,7.341l-0.309,54.228L927.275,529.598 M500.306,317.457
		c-101.381,0-183.856,82.319-183.856,183.471c0,101.153,82.474,183.432,183.856,183.432c101.38,0,183.856-82.318,183.856-183.432
		C684.162,399.777,601.687,317.457,500.306,317.457L500.306,317.457 M499.883,623.023c-67.331,0-122.095-54.766-122.095-122.097
		s54.764-122.095,122.095-122.095c67.332,0,122.097,54.764,122.097,122.095S567.215,623.023,499.883,623.023L499.883,623.023
		 M499.883,623.023"/>
</g>
</svg>
