<?xml version="1.0" encoding="utf-8"?>
<!-- Generator: Adobe Illustrator 16.0.0, SVG Export Plug-In . SVG Version: 6.00 Build 0)  -->
<!DOCTYPE svg PUBLIC "-//W3C//DTD SVG 1.1//EN" "http://www.w3.org/Graphics/SVG/1.1/DTD/svg11.dtd">
<svg version="1.1" id="图层_1" xmlns="http://www.w3.org/2000/svg" xmlns:xlink="http://www.w3.org/1999/xlink" x="0px" y="0px"
	 width="1000px" height="1000px" viewBox="0 0 1000 1000" enable-background="new 0 0 1000 1000" xml:space="preserve">
<g>
	<path fill-rule="evenodd" clip-rule="evenodd" stroke="#000000" stroke-width="20" stroke-miterlimit="10" d="M960.156,389.763
		c11.223,0,20.318-9.101,20.318-20.319c0-11.219-9.1-20.32-20.318-20.32c-0.005,0-0.009,0-0.017,0
		c-118.156-0.021-118.156-222.145,0-222.166c0.008,0,0.012,0,0.017,0c11.223,0,20.318-9.101,20.318-20.319
		c0-11.218-9.096-20.319-20.318-20.319c-3.393,0-6.692,0.158-9.949,0.391V86.32H144.86l0,0c-0.029,0-0.059,0-0.089,0h-4.157v0.098
		C0.759,90.639-20.447,302.15,76.833,369.435c-79.878,55.198-79.841,207.583,0.004,262.804
		c-97.331,67.258-76.005,278.813,63.777,283.033v0.094h4.068c0.059,0,0.115,0.004,0.178,0.004v-0.004h805.351v-0.391
		c3.258,0.237,6.557,0.395,9.949,0.395v-0.004c11.224,0,20.318-9.1,20.318-20.318c0-11.22-9.1-20.319-20.318-20.319
		c-0.021,0-0.043,0.008-0.063,0.008c-118.113-0.085-118.096-222.166,0.063-222.166v-0.004c11.224,0,20.318-9.1,20.318-20.319
		c0-11.219-9.1-20.318-20.318-20.318c-0.013,0-0.021,0.004-0.034,0.004C841.979,611.891,841.993,389.763,960.156,389.763
		L960.156,389.763z M468.29,652.566L468.29,652.566h401.41c-49.934,58.053-49.915,164.11,0.009,222.17H144.86
		c-118.181,0-118.181-222.166,0-222.166v-0.004h64.405c11.224,0,20.319-9.1,20.319-20.319c0-11.219-9.1-20.318-20.324-20.318
		c-0.03,0-0.055,0.009-0.085,0.009H144.86v-0.005c-118.155,0-118.176-222.077-0.072-222.166h64.472
		c11.224,0,20.319-9.1,20.319-20.319c0-11.219-9.1-20.32-20.323-20.32c-0.004,0-0.013,0-0.021,0H144.86l0,0
		c-118.155,0-118.176-222.076-0.072-222.165h724.881c-49.911,58.06-49.872,164.114,0.061,222.165H468.311c-0.005,0-0.013,0-0.021,0
		c-11.219,0-20.319,9.101-20.319,20.32c0,11.219,9.1,20.319,20.319,20.319l0,0h401.46c-49.971,58.061-49.941,164.113,0.039,222.171
		H468.371c-0.031,0-0.055-0.009-0.085-0.009c-11.219,0-20.318,9.1-20.318,20.318C447.967,643.467,457.07,652.566,468.29,652.566
		L468.29,652.566z"/>
	<path fill-rule="evenodd" clip-rule="evenodd" stroke="#000000" stroke-width="20" stroke-miterlimit="10" d="M402.008,207.546
		c-0.004,0-0.013,0-0.022,0H261.367c-0.008,0-0.012,0-0.02,0c-11.224,0-20.32,9.099-20.32,20.319c0,0.004,0,0.012,0,0.021v528.28
		c0,0.008,0,0.012,0,0.021c0,11.223,9.1,20.318,20.32,20.318c5.719,0,10.87-2.386,14.564-6.187l55.811-55.81l55.326,55.32
		c0.42,0.46,0.858,0.897,1.32,1.321l1.104,1.104l0.107-0.103c3.448,2.688,7.723,4.353,12.433,4.353
		c11.223,0,20.319-9.1,20.319-20.318V227.865C422.327,216.646,413.227,207.546,402.008,207.546L402.008,207.546z M331.812,665.535
		c-5.466,0-10.405,2.187-14.056,5.694l-0.046-0.005l-0.247,0.246c-0.013,0.014-0.021,0.025-0.034,0.039l-35.759,35.665V248.188
		h100.023v459.076l-33.198-32.968C344.822,669.012,338.728,665.535,331.812,665.535L331.812,665.535z"/>
</g>
</svg>
